HIERARCHY
ROOT mixamorig:Hips
{
	OFFSET -0.000008 104.274872 1.554316
	CHANNELS 6 Xposition Yposition Zposition Xrotation Yrotation Zrotation
	JOINT mixamorig:Spine
	{
		OFFSET -0.000005 10.181595 0.131519
		CHANNELS 6 Xposition Yposition Zposition Xrotation Yrotation Zrotation
		JOINT mixamorig:Spine1
		{
			OFFSET -0.000000 9.893959 -1.470707
			CHANNELS 6 Xposition Yposition Zposition Xrotation Yrotation Zrotation
			JOINT mixamorig:Spine2
			{
				OFFSET -0.000000 9.220757 -1.370641
				CHANNELS 6 Xposition Yposition Zposition Xrotation Yrotation Zrotation
				JOINT mixamorig:Neck
				{
					OFFSET 0.000001 16.740417 -2.049036
					CHANNELS 6 Xposition Yposition Zposition Xrotation Yrotation Zrotation
					JOINT mixamorig:Head
					{
						OFFSET 0.000000 9.617874 1.685006
						CHANNELS 6 Xposition Yposition Zposition Xrotation Yrotation Zrotation
						JOINT mixamorig:HeadTop_End
						{
							OFFSET 0.000002 22.037354 7.501101
							CHANNELS 6 Xposition Yposition Zposition Xrotation Yrotation Zrotation
							End Site
							{
								OFFSET 0.000168 2310.654297 -282.823242
							}
						}
					}
				}
				JOINT mixamorig:RightShoulder
				{
					OFFSET -4.569970 11.014908 -2.160885
					CHANNELS 6 Xposition Yposition Zposition Xrotation Yrotation Zrotation
					JOINT mixamorig:RightArm
					{
						OFFSET -10.592851 -0.524811 -2.232101
						CHANNELS 6 Xposition Yposition Zposition Xrotation Yrotation Zrotation
						JOINT mixamorig:RightForeArm
						{
							OFFSET -27.841511 0.000031 -0.000004
							CHANNELS 6 Xposition Yposition Zposition Xrotation Yrotation Zrotation
							JOINT mixamorig:RightHand
							{
								OFFSET -28.328831 -0.000015 0.000015
								CHANNELS 6 Xposition Yposition Zposition Xrotation Yrotation Zrotation
								JOINT mixamorig:RightHandThumb1
								{
									OFFSET -2.464806 -1.573990 2.681852
									CHANNELS 6 Xposition Yposition Zposition Xrotation Yrotation Zrotation
									JOINT mixamorig:RightHandThumb2
									{
										OFFSET -3.215179 -1.872803 1.924282
										CHANNELS 6 Xposition Yposition Zposition Xrotation Yrotation Zrotation
										JOINT mixamorig:RightHandThumb3
										{
											OFFSET -2.654831 -1.527969 1.512609
											CHANNELS 6 Xposition Yposition Zposition Xrotation Yrotation Zrotation
											JOINT mixamorig:RightHandThumb4
											{
												OFFSET -2.018814 -1.152008 1.108052
												CHANNELS 6 Xposition Yposition Zposition Xrotation Yrotation Zrotation
												End Site
												{
													OFFSET -188.809540 -114.533607 132.431396
												}
											}
										}
									}
								}
								JOINT mixamorig:RightHandIndex1
								{
									OFFSET -9.108284 -0.517868 2.259835
									CHANNELS 6 Xposition Yposition Zposition Xrotation Yrotation Zrotation
									JOINT mixamorig:RightHandIndex2
									{
										OFFSET -3.699989 0.000000 0.001215
										CHANNELS 6 Xposition Yposition Zposition Xrotation Yrotation Zrotation
										JOINT mixamorig:RightHandIndex3
										{
											OFFSET -2.850006 0.000031 -0.000522
											CHANNELS 6 Xposition Yposition Zposition Xrotation Yrotation Zrotation
											JOINT mixamorig:RightHandIndex4
											{
												OFFSET -2.772186 -0.000015 -0.000020
												CHANNELS 6 Xposition Yposition Zposition Xrotation Yrotation Zrotation
												End Site
												{
													OFFSET -277.218445 0.000000 -0.050231
												}
											}
										}
									}
								}
								JOINT mixamorig:RightHandMiddle1
								{
									OFFSET -9.532516 -0.000031 -0.000023
									CHANNELS 6 Xposition Yposition Zposition Xrotation Yrotation Zrotation
									JOINT mixamorig:RightHandMiddle2
									{
										OFFSET -3.700005 -0.000015 0.003713
										CHANNELS 6 Xposition Yposition Zposition Xrotation Yrotation Zrotation
										JOINT mixamorig:RightHandMiddle3
										{
											OFFSET -2.949974 0.000015 -0.002054
											CHANNELS 6 Xposition Yposition Zposition Xrotation Yrotation Zrotation
											JOINT mixamorig:RightHandMiddle4
											{
												OFFSET -2.946640 0.000000 -0.000156
												CHANNELS 6 Xposition Yposition Zposition Xrotation Yrotation Zrotation
												End Site
												{
													OFFSET -294.664337 0.000000 -0.113670
												}
											}
										}
									}
								}
								JOINT mixamorig:RightHandRing1
								{
									OFFSET -9.103600 -0.043076 -1.865134
									CHANNELS 6 Xposition Yposition Zposition Xrotation Yrotation Zrotation
									JOINT mixamorig:RightHandRing2
									{
										OFFSET -3.379288 0.000000 -0.001055
										CHANNELS 6 Xposition Yposition Zposition Xrotation Yrotation Zrotation
										JOINT mixamorig:RightHandRing3
										{
											OFFSET -2.889687 -0.000015 0.000379
											CHANNELS 6 Xposition Yposition Zposition Xrotation Yrotation Zrotation
											JOINT mixamorig:RightHandRing4
											{
												OFFSET -2.638809 -0.000015 0.000941
												CHANNELS 6 Xposition Yposition Zposition Xrotation Yrotation Zrotation
												End Site
												{
													OFFSET -263.880371 0.000000 0.516020
												}
											}
										}
									}
								}
								JOINT mixamorig:RightHandPinky1
								{
									OFFSET -8.076683 -0.486710 -3.806280
									CHANNELS 6 Xposition Yposition Zposition Xrotation Yrotation Zrotation
									JOINT mixamorig:RightHandPinky2
									{
										OFFSET -3.600014 -0.000015 -0.003747
										CHANNELS 6 Xposition Yposition Zposition Xrotation Yrotation Zrotation
										JOINT mixamorig:RightHandPinky3
										{
											OFFSET -2.099983 0.000000 -0.005739
											CHANNELS 6 Xposition Yposition Zposition Xrotation Yrotation Zrotation
											JOINT mixamorig:RightHandPinky4
											{
												OFFSET -2.115768 -0.000031 -0.003680
												CHANNELS 6 Xposition Yposition Zposition Xrotation Yrotation Zrotation
												End Site
												{
													OFFSET -211.577087 0.000000 -0.350686
												}
											}
										}
									}
								}
							}
						}
					}
				}
				JOINT mixamorig:LeftShoulder
				{
					OFFSET 4.570447 11.014725 -2.160855
					CHANNELS 6 Xposition Yposition Zposition Xrotation Yrotation Zrotation
					JOINT mixamorig:LeftArm
					{
						OFFSET 10.592371 -0.524597 -2.232119
						CHANNELS 6 Xposition Yposition Zposition Xrotation Yrotation Zrotation
						JOINT mixamorig:LeftForeArm
						{
							OFFSET 27.841532 -0.000031 0.000026
							CHANNELS 6 Xposition Yposition Zposition Xrotation Yrotation Zrotation
							JOINT mixamorig:LeftHand
							{
								OFFSET 28.328846 -0.000061 0.000022
								CHANNELS 6 Xposition Yposition Zposition Xrotation Yrotation Zrotation
								JOINT mixamorig:LeftHandThumb1
								{
									OFFSET 2.466141 -1.576172 2.681732
									CHANNELS 6 Xposition Yposition Zposition Xrotation Yrotation Zrotation
									JOINT mixamorig:LeftHandThumb2
									{
										OFFSET 3.217812 -1.872070 1.916482
										CHANNELS 6 Xposition Yposition Zposition Xrotation Yrotation Zrotation
										JOINT mixamorig:LeftHandThumb3
										{
											OFFSET 2.656029 -1.528778 1.514513
											CHANNELS 6 Xposition Yposition Zposition Xrotation Yrotation Zrotation
											JOINT mixamorig:LeftHandThumb4
											{
												OFFSET 2.020889 -1.154053 1.115139
												CHANNELS 6 Xposition Yposition Zposition Xrotation Yrotation Zrotation
												End Site
												{
													OFFSET 190.885437 -115.081749 130.048782
												}
											}
										}
									}
								}
								JOINT mixamorig:LeftHandIndex1
								{
									OFFSET 9.109314 -0.518021 2.259871
									CHANNELS 6 Xposition Yposition Zposition Xrotation Yrotation Zrotation
									JOINT mixamorig:LeftHandIndex2
									{
										OFFSET 3.699989 0.000000 -0.000322
										CHANNELS 6 Xposition Yposition Zposition Xrotation Yrotation Zrotation
										JOINT mixamorig:LeftHandIndex3
										{
											OFFSET 2.850006 0.000000 0.000352
											CHANNELS 6 Xposition Yposition Zposition Xrotation Yrotation Zrotation
											JOINT mixamorig:LeftHandIndex4
											{
												OFFSET 2.774864 -0.000031 -0.000027
												CHANNELS 6 Xposition Yposition Zposition Xrotation Yrotation Zrotation
												End Site
												{
													OFFSET 277.486267 0.000000 -0.009857
												}
											}
										}
									}
								}
								JOINT mixamorig:LeftHandMiddle1
								{
									OFFSET 9.533394 0.000061 0.000044
									CHANNELS 6 Xposition Yposition Zposition Xrotation Yrotation Zrotation
									JOINT mixamorig:LeftHandMiddle2
									{
										OFFSET 3.699989 -0.000015 -0.000231
										CHANNELS 6 Xposition Yposition Zposition Xrotation Yrotation Zrotation
										JOINT mixamorig:LeftHandMiddle3
										{
											OFFSET 2.949997 -0.000015 -0.000059
											CHANNELS 6 Xposition Yposition Zposition Xrotation Yrotation Zrotation
											JOINT mixamorig:LeftHandMiddle4
											{
												OFFSET 2.952896 0.000031 0.000063
												CHANNELS 6 Xposition Yposition Zposition Xrotation Yrotation Zrotation
												End Site
												{
													OFFSET 295.289337 0.000000 0.022810
												}
											}
										}
									}
								}
								JOINT mixamorig:LeftHandRing1
								{
									OFFSET 9.104523 -0.042999 -1.865074
									CHANNELS 6 Xposition Yposition Zposition Xrotation Yrotation Zrotation
									JOINT mixamorig:LeftHandRing2
									{
										OFFSET 3.150009 -0.000031 0.000043
										CHANNELS 6 Xposition Yposition Zposition Xrotation Yrotation Zrotation
										JOINT mixamorig:LeftHandRing3
										{
											OFFSET 2.949982 -0.000015 0.000040
											CHANNELS 6 Xposition Yposition Zposition Xrotation Yrotation Zrotation
											JOINT mixamorig:LeftHandRing4
											{
												OFFSET 2.644348 0.000000 0.000057
												CHANNELS 6 Xposition Yposition Zposition Xrotation Yrotation Zrotation
												End Site
												{
													OFFSET 264.434631 0.000000 0.012105
												}
											}
										}
									}
								}
								JOINT mixamorig:LeftHandPinky1
								{
									OFFSET 8.077789 -0.486847 -3.806259
									CHANNELS 6 Xposition Yposition Zposition Xrotation Yrotation Zrotation
									JOINT mixamorig:LeftHandPinky2
									{
										OFFSET 3.599953 0.000031 0.014727
										CHANNELS 6 Xposition Yposition Zposition Xrotation Yrotation Zrotation
										JOINT mixamorig:LeftHandPinky3
										{
											OFFSET 2.100021 0.000015 0.007705
											CHANNELS 6 Xposition Yposition Zposition Xrotation Yrotation Zrotation
											JOINT mixamorig:LeftHandPinky4
											{
												OFFSET 2.125504 0.000031 0.007517
												CHANNELS 6 Xposition Yposition Zposition Xrotation Yrotation Zrotation
												End Site
												{
													OFFSET 212.550781 0.000000 0.625752
												}
											}
										}
									}
								}
							}
						}
					}
				}
			}
		}
	}
	JOINT mixamorig:RightUpLeg
	{
		OFFSET -8.207787 -6.751648 -1.599560
		CHANNELS 6 Xposition Yposition Zposition Xrotation Yrotation Zrotation
		JOINT mixamorig:RightLeg
		{
			OFFSET -0.000002 -44.370117 0.345942
			CHANNELS 6 Xposition Yposition Zposition Xrotation Yrotation Zrotation
			JOINT mixamorig:RightFoot
			{
				OFFSET 0.000003 -44.423679 -3.043532
				CHANNELS 6 Xposition Yposition Zposition Xrotation Yrotation Zrotation
				JOINT mixamorig:RightToeBase
				{
					OFFSET -0.000002 -8.728671 10.710558
					CHANNELS 6 Xposition Yposition Zposition Xrotation Yrotation Zrotation
					JOINT mixamorig:RightToe_End
					{
						OFFSET -0.000001 -0.000679 9.278119
						CHANNELS 6 Xposition Yposition Zposition Xrotation Yrotation Zrotation
						End Site
						{
							OFFSET 0.000000 -0.067690 927.812134
						}
					}
				}
			}
		}
	}
	JOINT mixamorig:LeftUpLeg
	{
		OFFSET 8.207793 -6.751686 -1.599556
		CHANNELS 6 Xposition Yposition Zposition Xrotation Yrotation Zrotation
		JOINT mixamorig:LeftLeg
		{
			OFFSET -0.000004 -44.370014 0.346954
			CHANNELS 6 Xposition Yposition Zposition Xrotation Yrotation Zrotation
			JOINT mixamorig:LeftFoot
			{
				OFFSET -0.000001 -44.423672 -3.044401
				CHANNELS 6 Xposition Yposition Zposition Xrotation Yrotation Zrotation
				JOINT mixamorig:LeftToeBase
				{
					OFFSET -0.000002 -8.728669 10.710558
					CHANNELS 6 Xposition Yposition Zposition Xrotation Yrotation Zrotation
					JOINT mixamorig:LeftToe_End
					{
						OFFSET -0.000003 -0.000679 9.278133
						CHANNELS 6 Xposition Yposition Zposition Xrotation Yrotation Zrotation
						End Site
						{
							OFFSET 0.000000 -0.068021 927.813477
						}
					}
				}
			}
		}
	}
}
MOTION
Frames: 3
Frame Time: 0.033333
0.000006 104.270477 1.554256 0.000010 0.000003 -0.000113 -0.000005 10.181587 0.131522 0.000001 -0.000003 0.000084 -0.000000 9.893967 -1.470711 0.000001 0.000000 -0.000000 -0.000000 9.220802 -1.370642 0.000000 -0.000000 -0.000000 0.000001 16.740433 -2.049030 0.000000 -0.000000 -0.000000 0.000000 9.617859 1.685014 0.000000 0.000000 0.000000 0.000002 22.037384 7.501101 0.000000 -0.000000 0.000000 -4.569968 11.014880 -2.160881 0.000008 0.000001 -0.000038 -10.592873 -0.524774 -2.231877 75.654262 33.105220 -25.989029 -27.841518 -0.000005 0.000555 -50.697670 108.169078 66.375410 -28.328833 -0.000007 0.000031 -0.000325 -0.000044 0.000005 -2.464429 -1.573806 2.682353 -44.312051 -163.399490 -0.741282 -3.215288 -1.872592 1.924642 153.861718 31.194867 1.802668 -2.654955 -1.527889 1.513087 145.255202 27.391710 -35.620143 -2.018849 -1.152020 1.108049 -0.000003 -0.000001 0.000002 -9.108388 -0.517555 2.260137 102.677626 16.121589 -20.134954 -3.700062 0.000295 0.001521 97.467373 13.615439 -15.467978 -2.850080 0.000364 -0.000260 96.749834 10.652096 -11.976960 -2.772165 0.000000 -0.000020 0.000000 0.000001 0.000001 -9.532602 0.000267 0.000261 96.716906 15.971209 -18.091406 -3.700065 0.000311 0.003979 94.689672 12.702969 -13.674408 -2.950036 0.000346 -0.001787 95.659490 11.384350 -12.551464 -2.946625 0.000003 -0.000156 0.000001 0.000001 0.000000 -9.103712 -0.042773 -1.864855 92.548230 20.020644 -20.864058 -3.379352 0.000307 -0.000801 92.213202 12.266661 -12.764573 -2.889759 0.000353 0.000656 97.034906 7.588119 -8.630513 -2.638805 -0.000015 0.000942 -0.000002 0.000000 -0.000002 -8.076748 -0.486400 -3.806063 76.717894 19.580592 -15.428989 -3.600029 0.000263 -0.003565 78.663726 10.220085 -8.082582 -2.100003 0.000295 -0.005530 82.625645 5.506167 -4.647622 -2.115764 -0.000039 -0.003680 0.000001 0.000002 -0.000002 4.570446 11.014691 -2.160851 -0.000018 0.000010 -0.000021 10.592412 -0.524472 -2.232372 71.911264 -17.854914 13.001108 27.841820 0.000075 -0.000203 102.408394 -71.737668 83.938394 28.328825 -0.000029 0.000028 0.000022 -0.000089 -0.000000 2.466010 -1.576172 2.681907 -39.046638 159.075092 -10.011799 3.217780 -1.871729 1.916361 154.689373 -31.188747 -1.224073 2.656087 -1.528622 1.514456 141.127103 -27.805944 40.211738 2.020875 -1.154066 1.115145 0.000001 0.000002 0.000003 9.109367 -0.517840 2.259722 87.522987 -14.217062 13.609466 3.700046 0.000160 -0.000475 83.953496 -13.925002 12.555057 2.850058 0.000194 0.000220 83.696298 -13.142075 11.779278 2.774870 -0.000032 -0.000029 -0.000003 0.000001 0.000001 9.533472 0.000227 -0.000103 87.312453 -13.045407 12.444011 3.700056 0.000174 -0.000385 87.024314 -12.869465 12.220356 2.950094 0.000149 -0.000210 86.734892 -16.998920 16.072355 2.952843 -0.000015 0.000062 -0.000000 0.000000 -0.000000 9.104585 -0.042841 -1.865237 86.240407 -13.681199 12.820952 3.150054 0.000207 -0.000096 91.251785 -13.169338 13.459493 2.950029 0.000155 -0.000057 92.901030 -15.142616 15.921480 2.644312 0.000045 0.000054 0.000001 -0.000000 -0.000001 8.077844 -0.486751 -3.806419 69.458229 -16.564454 11.940643 3.599986 0.000168 0.014567 72.028334 -13.190454 9.983568 2.100039 0.000168 0.007565 76.003681 -12.446672 10.121875 2.125498 -0.000031 0.007512 -0.000001 0.000002 -0.000001 -8.207786 -6.751667 -1.599560 -0.077001 -0.000003 0.000080 -0.000002 -44.370110 0.345938 0.153719 -0.000000 -0.000000 0.000000 -44.423679 -3.043532 -0.076700 0.000000 -0.000002 -0.000006 -8.728667 10.710559 -0.000009 -0.000000 -0.000000 -0.000001 -0.000679 9.278123 0.000000 -0.000000 -0.000000 8.207792 -6.751710 -1.599556 -0.074518 -0.000003 0.000081 -0.000002 -44.370014 0.346960 0.148822 0.000002 0.000000 -0.000001 -44.423664 -3.044403 -0.074314 0.000000 -0.000002 -0.000004 -8.728671 10.710558 0.000007 -0.000000 -0.000000 0.000000 -0.000680 9.278137 -0.000000 0.000000 -0.000001 
0.000006 104.270477 1.554256 0.000010 0.000003 -0.000113 -0.000005 10.181587 0.131522 0.000001 -0.000003 0.000084 -0.000000 9.893967 -1.470711 0.000001 0.000000 -0.000000 -0.000000 9.220802 -1.370642 0.000000 -0.000000 -0.000000 0.000001 16.740433 -2.049030 0.000000 -0.000000 -0.000000 0.000000 9.617859 1.685014 0.000000 0.000000 0.000000 0.000002 22.037384 7.501101 0.000000 -0.000000 0.000000 -4.569968 11.014880 -2.160881 0.000008 0.000001 -0.000038 -10.592875 -0.524769 -2.231901 76.177230 30.781214 -24.349981 -27.841528 0.000008 0.000556 -48.583487 106.511008 62.309528 -28.328814 0.000023 0.000027 -0.000321 -0.000044 0.000007 -2.464441 -1.573702 2.682294 -52.586258 -170.960523 -23.683549 -3.215271 -1.872567 1.924657 150.638729 31.685265 8.211478 -2.654959 -1.527878 1.513058 144.861195 27.894351 -29.985367 -2.018838 -1.151997 1.108055 -0.000001 -0.000003 0.000004 -9.108402 -0.517557 2.260128 100.762871 15.639550 -18.894895 -3.700069 0.000313 0.001515 97.810652 14.085385 -16.096835 -2.850080 0.000362 -0.000260 97.488868 12.005058 -13.670433 -2.772176 -0.000001 -0.000021 0.000001 -0.000001 -0.000001 -9.532599 0.000261 0.000247 93.441414 16.130460 -17.266252 -3.700073 0.000324 0.003974 94.965926 12.653680 -13.686525 -2.950065 0.000324 -0.001795 96.533072 12.392846 -13.871210 -2.946640 0.000003 -0.000155 -0.000001 0.000000 0.000000 -9.103720 -0.042770 -1.864877 89.456716 19.900883 -19.671440 -3.379339 0.000299 -0.000802 94.166527 11.192351 -12.050356 -2.889770 0.000342 0.000662 99.520453 8.746902 -10.383155 -2.638823 -0.000026 0.000938 0.000002 0.000001 -0.000001 -8.076782 -0.486407 -3.806077 75.345422 22.101498 -17.026629 -3.600056 0.000254 -0.003551 78.337154 11.908428 -9.409149 -2.100025 0.000300 -0.005524 81.889153 6.851244 -5.751862 -2.115764 -0.000056 -0.003677 -0.000001 0.000001 -0.000005 4.570446 11.014691 -2.160851 -0.000018 0.000010 -0.000021 10.592394 -0.524479 -2.232344 72.585540 -10.861173 7.987327 27.841825 0.000059 -0.000200 104.348823 -72.446601 86.668612 28.328840 -0.000028 0.000019 0.000022 -0.000089 -0.000000 2.466091 -1.576174 2.681897 -24.880325 159.454359 -40.859947 3.217851 -1.871773 1.916385 162.349772 -26.686352 22.383177 2.656093 -1.528632 1.514462 144.155650 -26.421019 49.442469 2.020883 -1.154072 1.115151 0.000005 0.000002 0.000003 9.109383 -0.517864 2.259747 86.702708 -18.660384 17.621142 3.700036 0.000169 -0.000454 83.395674 -11.999317 10.713187 2.850047 0.000194 0.000204 83.411985 -9.963702 8.882681 2.774912 -0.000046 -0.000032 -0.000000 -0.000001 -0.000001 9.533481 0.000201 -0.000086 86.069215 -17.660275 16.496705 3.700051 0.000179 -0.000376 87.669672 -10.606141 10.183054 2.950054 0.000190 -0.000208 89.178515 -12.022176 11.855138 2.952865 -0.000031 0.000063 -0.000001 -0.000002 0.000000 9.104590 -0.042855 -1.865219 85.064159 -17.975998 16.513690 3.150045 0.000205 -0.000091 92.089166 -11.808189 12.245400 2.950027 0.000200 -0.000073 93.935120 -11.454421 12.265299 2.644325 0.000015 0.000059 -0.000001 0.000000 -0.000000 8.077842 -0.486737 -3.806399 72.551670 -18.799619 14.304145 3.600001 0.000170 0.014569 74.034661 -15.799597 12.346040 2.100039 0.000161 0.007548 76.017280 -13.005367 10.565665 2.125497 -0.000017 0.007518 -0.000001 0.000003 -0.000000 -8.207786 -6.751667 -1.599560 -0.077001 -0.000003 0.000080 -0.000002 -44.370110 0.345938 0.153719 -0.000000 -0.000000 0.000000 -44.423679 -3.043532 -0.076700 0.000000 -0.000002 -0.000006 -8.728667 10.710559 -0.000009 -0.000000 -0.000000 -0.000001 -0.000679 9.278123 0.000000 -0.000000 -0.000000 8.207792 -6.751710 -1.599556 -0.074518 -0.000003 0.000081 -0.000002 -44.370014 0.346960 0.148822 0.000002 0.000000 -0.000001 -44.423664 -3.044403 -0.074314 0.000000 -0.000002 -0.000004 -8.728671 10.710558 0.000007 -0.000000 -0.000000 0.000000 -0.000680 9.278137 -0.000000 0.000000 -0.000001 
0.000006 104.270477 1.554256 0.000010 0.000003 -0.000113 -0.000005 10.181587 0.131522 0.000001 -0.000003 0.000084 -0.000000 9.893967 -1.470711 0.000001 0.000000 -0.000000 -0.000000 9.220802 -1.370642 0.000000 -0.000000 -0.000000 0.000001 16.740433 -2.049030 0.000000 -0.000000 -0.000000 0.000000 9.617859 1.685014 0.000000 0.000000 0.000000 0.000002 22.037384 7.501101 0.000000 -0.000000 0.000000 -4.569968 11.014880 -2.160881 0.000008 0.000001 -0.000038 -10.592866 -0.524786 -2.231865 76.215199 36.998821 -29.407943 -27.841515 0.000016 0.000543 -47.801482 104.513970 59.581011 -28.328819 0.000023 0.000031 -0.000317 -0.000045 0.000007 -2.464454 -1.573687 2.682281 -53.555524 -173.549629 -27.499004 -3.215275 -1.872576 1.924644 150.709272 31.446078 6.338805 -2.654949 -1.527843 1.513056 144.948704 27.885555 -29.940670 -2.018838 -1.152015 1.108057 -0.000004 -0.000002 0.000004 -9.108380 -0.517529 2.260133 101.026079 14.718571 -17.872807 -3.700071 0.000314 0.001502 97.913200 13.245250 -15.165171 -2.850077 0.000371 -0.000257 97.236875 11.437022 -12.967731 -2.772172 -0.000000 -0.000021 -0.000001 -0.000002 0.000000 -9.532600 0.000275 0.000238 93.842161 15.644159 -16.866527 -3.700077 0.000318 0.003973 95.041563 12.783844 -13.846166 -2.950068 0.000324 -0.001814 95.722062 12.499242 -13.794286 -2.946612 0.000002 -0.000155 -0.000003 0.000002 0.000001 -9.103717 -0.042760 -1.864878 89.582029 19.603775 -19.418703 -3.379358 0.000295 -0.000804 93.669590 11.452451 -12.223808 -2.889770 0.000338 0.000668 97.967787 9.093120 -10.501277 -2.638804 0.000012 0.000942 -0.000003 -0.000003 0.000001 -8.076767 -0.486409 -3.806058 74.678741 21.944107 -16.703824 -3.600040 0.000254 -0.003541 77.508632 11.850371 -9.224906 -2.100019 0.000305 -0.005528 80.053259 6.937057 -5.640342 -2.115773 -0.000055 -0.003681 -0.000001 -0.000000 -0.000004 4.570446 11.014691 -2.160851 -0.000018 0.000010 -0.000021 10.592432 -0.524474 -2.232383 72.635305 -23.878855 17.669375 27.841824 0.000032 -0.000194 106.340718 -75.128625 91.525587 28.328836 -0.000043 0.000019 0.000021 -0.000087 0.000001 2.466268 -1.576022 2.681816 15.925498 172.563240 -114.031217 3.217852 -1.871808 1.916397 167.199616 -25.117607 26.605079 2.656095 -1.528621 1.514460 148.660788 -25.248943 47.709968 2.020891 -1.154063 1.115149 0.000003 0.000002 0.000003 9.109402 -0.517862 2.259748 93.069428 -22.739969 23.943015 3.700045 0.000178 -0.000473 88.479473 -14.267166 13.913874 2.850040 0.000192 0.000191 87.395098 -11.563742 11.051633 2.774891 -0.000015 -0.000026 0.000006 -0.000000 0.000002 9.533484 0.000190 -0.000086 87.896673 -21.818102 21.040408 3.700048 0.000195 -0.000389 90.178530 -11.492442 11.525404 2.950069 0.000195 -0.000194 90.990967 -12.113728 12.326424 2.952873 -0.000014 0.000064 -0.000001 -0.000002 0.000000 9.104612 -0.042881 -1.865210 86.167563 -21.614590 20.246926 3.150069 0.000204 -0.000075 90.939741 -13.121713 13.338635 2.950027 0.000176 -0.000084 92.038343 -11.411298 11.823595 2.644311 0.000015 0.000055 0.000002 -0.000001 -0.000000 8.077843 -0.486743 -3.806384 74.391265 -22.314040 17.504474 3.600001 0.000140 0.014574 74.682156 -18.554253 14.623759 2.100044 0.000163 0.007557 77.070810 -14.569755 12.025556 2.125497 -0.000015 0.007513 -0.000000 -0.000000 -0.000001 -8.207786 -6.751667 -1.599560 -0.077001 -0.000003 0.000080 -0.000002 -44.370110 0.345938 0.153719 -0.000000 -0.000000 0.000000 -44.423679 -3.043532 -0.076700 0.000000 -0.000002 -0.000006 -8.728667 10.710559 -0.000009 -0.000000 -0.000000 -0.000001 -0.000679 9.278123 0.000000 -0.000000 -0.000000 8.207792 -6.751710 -1.599556 -0.074518 -0.000003 0.000081 -0.000002 -44.370014 0.346960 0.148822 0.000002 0.000000 -0.000001 -44.423664 -3.044403 -0.074314 0.000000 -0.000002 -0.000004 -8.728671 10.710558 0.000007 -0.000000 -0.000000 0.000000 -0.000680 9.278137 -0.000000 0.000000 -0.000001 
